{"title":"Meek Mill ft.Nicki Minaj+Chris Brown - All Eyes On You (2015)","uid":12181317,"size":104926127,"categoryP":"video","categoryS":"music_videos","magnet":"?xt=urn:btih:544f7b831c4eee31dfdce2d8361648ae6ab4dfc1&amp;dn=Meek+Mill+ft.Nicki+Minaj%2BChris+Brown+-+All+Eyes+On+You+%282015%29&amp;tr=udp%3A%2F%2Ftracker.openbittorrent.com%3A80&amp;tr=udp%3A%2F%2Fopen.demonii.com%3A1337&amp;tr=udp%3A%2F%2Ftracker.coppersurfer.tk%3A6969&amp;tr=udp%3A%2F%2Fexodus.desync.com%3A6969","seeders":0,"leechers":3,"uploader":"MeRaDil","files":1,"time":1438451892,"description":"MEEK MILL ft.NICKI MINAJ &amp; CHRIS BROWN - ALL EYES ON YOU\n\n &lt;a href=&quot;\nhttp://gifyu.com/images/MeekMill.png&quot; rel=&quot;nofollow&quot; target=&quot;_NEW&quot;&gt;\nhttp://gifyu.com/images/MeekMill.png&lt;/a&gt;\n &lt;a href=&quot;\nhttp://gifyu.com/images/MeekMill1.png&quot; rel=&quot;nofollow&quot; target=&quot;_NEW&quot;&gt;\nhttp://gifyu.com/images/MeekMill1.png&lt;/a&gt;\n\n\nGeneral\nMeek Mill ft. Nicki Minaj &amp; Chris Brown - All Eyes On You\nFormat                                   : MPEG-4\nFormat profile                           : Base Media\nCodec ID                                 : isom\nFile size                                : 100 MiB\nDuration                                 : 3mn 54s\nOverall bit rate                         : 3 580 Kbps\nMusicVideo name                          : All Eyes On You\nAlbum                                    : Dreams Worth More Than Money\nPerformer                                : Meek Mill ft. Nicki Minaj &amp; Chris Brown\nGenre                                    : HipHop\nContentType                              : Music Video\nRecorded date                            : 2015\nCover                                    : Yes\nRating                                   : ***\nMake                                     : MeRaDil\nRelease                                  : USA - july 27 - 2015\n\nVideo\nID                                       : 1\nFormat                                   : AVC\nFormat/Info                              : Advanced Video Codec\nFormat profile                           : &lt;a class=&quot;__cf_email__&quot; href=&quot;/cdn-cgi/l/email-protection&quot; data-cfemail=&quot;c189a8a6a9818df5eff1&quot;&gt;[email&amp;#160;protected]&lt;/a&gt;&lt;script data-cfhash='f9e31' type=&quot;text/javascript&quot;&gt;\n/* &lt;![CDATA[ */!function(){try{var t=&quot;currentScript&quot;in document?document.currentScript:function(){for(var t=document.getElementsByTagName(&quot;script&quot;),e=t.length;e--;)if(t[e].getAttribute(&quot;data-cfhash&quot;))return t[e]}();if(t&amp;&amp;t.previousSibling){var e,r,n,i,c=t.previousSibling,a=c.getAttribute(&quot;data-cfemail&quot;);if(a){for(e=&quot;&quot;,r=parseInt(a.substr(0,2),16),n=2;a.length-n;n+=2)i=parseInt(a.substr(n,2),16)^r,e+=String.fromCharCode(i);e=document.createTextNode(e),c.parentNode.replaceChild(e,c)}t.parentNode.removeChild(t);}}catch(u){}}()/* ]]&gt; */&lt;/script&gt;\nFormat settings, CABAC                   : Yes\nFormat settings, ReFrames                : 2 frames\nCodec ID                                 : avc1\nCodec ID/Info                            : Advanced Video Coding\nDuration                                 : 3mn 54s\nBit rate                                 : 3 319 Kbps\nWidth                                    : 1 920 pixels\nHeight                                   : 1 080 pixels\nDisplay aspect ratio                     : 16:9\nFrame rate mode                          : Variable\nFrame rate                               : 23.879 fps\nMinimum frame rate                       : 23.873 fps\nMaximum frame rate                       : 23.879 fps\nColor space                              : YUV\nChroma subsampling                       : 4:2:0\nBit depth                                : 8 bits\nScan type                                : Progressive\nBits/(Pixel*Frame)                       : 0.067\nStream size                              : 92.7 MiB (93%)\n\nAudio\nID                                       : 2\nFormat                                   : AAC\nFormat/Info                              : Advanced Audio Codec\nFormat profile                           : LC\nCodec ID                                 : 40\nDuration                                 : 3mn 54s\nBit rate mode                            : Constant\nBit rate                                 : 256 Kbps\nChannel(s)                               : 2 channels\nChannel positions                        : Front: L R\nSampling rate                            : 44.1 KHz\nCompression mode                         : Lossy\nStream size                              : 7.15 MiB (7%)\n &lt;a href=&quot;\nhttps://thepiratebay.se/user/MeRaDil&quot; rel=&quot;nofollow&quot; target=&quot;_NEW&quot;&gt;\nhttps://thepiratebay.se/user/MeRaDil&lt;/a&gt;\n\nMeek Mill * Nicki Minaj * Chris Brown * HipHop * Promo","torrent":{"xt":"urn:btih:544f7b831c4eee31dfdce2d8361648ae6ab4dfc1","amp;dn":"Meek+Mill+ft.Nicki+Minaj%2BChris+Brown+-+All+Eyes+On+You+%282015%29","amp;tr":["udp%3A%2F%2Ftracker.openbittorrent.com%3A80","udp%3A%2F%2Fopen.demonii.com%3A1337","udp%3A%2F%2Ftracker.coppersurfer.tk%3A6969","udp%3A%2F%2Fexodus.desync.com%3A6969"],"infoHash":"544f7b831c4eee31dfdce2d8361648ae6ab4dfc1","infoHashBuffer":{"type":"Buffer","data":[84,79,123,131,28,78,238,49,223,220,226,216,54,22,72,174,106,180,223,193]},"announce":[],"urlList":[]}}